HIERARCHY
ROOT Hips
{
	OFFSET	0.00	0.00	0.00
	CHANNELS 6 Xposition Yposition Zposition Zrotation Xrotation Yrotation
	JOINT Chest
	{
		OFFSET	 0.00	 5.21	 0.00
		CHANNELS 3 Zrotation Xrotation Yrotation
		JOINT Neck
		{
			OFFSET	 0.00	 18.65	 0.00
			CHANNELS 3 Zrotation Xrotation Yrotation
			JOINT Head
			{
				OFFSET	 0.00	 5.45	 0.00
				CHANNELS 3 Zrotation Xrotation Yrotation
				End Site 
				{
					OFFSET	 0.00	 3.87	 0.00
				}
			}
		}
		JOINT LeftCollar
		{
			OFFSET	 1.12	 16.23	 1.87
			CHANNELS 3 Zrotation Xrotation Yrotation
			JOINT LeftUpArm
			{
				OFFSET	 5.54	 0.00	 0.00
				CHANNELS 3 Zrotation Xrotation Yrotation
				JOINT LeftLowArm
				{
					OFFSET	 0.00	-11.96	 0.00
					CHANNELS 3 Zrotation Xrotation Yrotation
					JOINT LeftHand
					{
						OFFSET	 0.00	-9.93	 0.00
						CHANNELS 3 Zrotation Xrotation Yrotation
						End Site 
						{
							OFFSET	 0.00	-7.00	 0.00
						}
					}
				}
			}
		}
		JOINT RightCollar
		{
			OFFSET	-1.12	 16.23	 1.87
			CHANNELS 3 Zrotation Xrotation Yrotation
			JOINT RightUpArm
			{
				OFFSET	-6.07	 0.00	 0.00
				CHANNELS 3 Zrotation Xrotation Yrotation
				JOINT RightLowArm
				{
					OFFSET	 0.00	-11.82	 0.00
					CHANNELS 3 Zrotation Xrotation Yrotation
					JOINT RightHand
					{
						OFFSET	 0.00	-10.65	 0.00
						CHANNELS 3 Zrotation Xrotation Yrotation
						End Site 
						{
							OFFSET	 0.00	-7.00	 0.00
						}
					}
				}
			}
		}
	}
	JOINT LeftUpLeg
	{
		OFFSET	 3.91	 0.00	 0.00
		CHANNELS 3 Zrotation Xrotation Yrotation
		JOINT LeftLowLeg
		{
			OFFSET	 0.00	-18.34	 0.00
			CHANNELS 3 Zrotation Xrotation Yrotation
			JOINT LeftFoot
			{
				OFFSET	 0.00	-17.37	 0.00
				CHANNELS 3 Zrotation Xrotation Yrotation
				End Site 
				{
					OFFSET	 0.00	-3.46	 0.00
				}
			}
		}
	}
	JOINT RightUpLeg
	{
		OFFSET	-3.91	 0.00	 0.00
		CHANNELS 3 Zrotation Xrotation Yrotation
		JOINT RightLowLeg
		{
			OFFSET	 0.00	-17.63	 0.00
			CHANNELS 3 Zrotation Xrotation Yrotation
			JOINT RightFoot
			{
				OFFSET	 0.00	-17.14	 0.00
				CHANNELS 3 Zrotation Xrotation Yrotation
				End Site 
				{
					OFFSET	 0.00	-3.75	 0.00
				}
			}
		}
	}
}
MOTION
Frames:    22
Frame Time: 0.033333
-5.59	 39.43	-41.18	 1.01	-1.24	-4.17	-9.62	 30.14	 3.64	 8.88	 25.91	 0.00	-7.30	-41.04	 0.23	 20.23	 0.00	-4.61	 86.08	 22.22	-10.39	 67.87	-85.59	 72.17	 0.72	 0.00	 0.00	-18.68	 0.00	-11.27	-82.14	-2.19	-51.71	 2.30	-40.64	-2.79	-1.76	 3.55	 0.11	 7.87	-26.43	 3.52	 102.52	 84.30	-91.86	 0.00	-12.71	 0.00	-10.21	 14.90	 2.65	 6.72	 14.46	-13.69	 0.00	-12.58	 0.00	
-5.59	 40.23	-37.53	 1.89	-0.09	-5.66	-13.75	 28.31	 8.50	 4.58	 27.66	 0.00	-10.28	-40.51	-4.34	 21.40	 0.00	-6.75	 93.32	 26.09	-5.29	 41.31	-83.22	 45.18	 0.72	-0.13	 0.00	-14.14	 0.00	-11.85	-82.92	-3.32	-33.03	-6.80	-35.21	-19.96	-1.95	 4.06	 0.14	 8.04	-30.75	 4.13	 17.34	 75.10	-4.34	 0.00	-12.28	 0.00	-11.86	 19.75	 4.06	 6.37	 9.06	-15.44	 0.00	-3.11	 0.00	
-5.52	 40.60	-33.76	 1.68	 0.88	-5.73	-15.61	 26.12	 11.94	 2.40	 30.44	 0.00	-11.72	-40.18	-6.57	 21.66	 0.00	-9.08	 100.56	 27.86	-0.05	 21.34	-77.17	 24.66	 0.72	-0.48	 0.01	-8.95	 0.00	-14.04	-84.71	-4.28	-23.83	-7.81	-31.53	-24.72	-2.14	 4.46	 0.17	 8.43	-31.98	 4.49	 7.05	 58.53	 7.25	 0.00	-11.51	 0.00	-12.04	 22.78	 4.72	 6.38	 9.58	-18.43	 0.00	 4.83	 0.00	
-5.41	 40.36	-29.91	 0.34	 1.12	-4.58	-15.14	 24.38	 13.82	 1.92	 33.43	 0.00	-11.95	-40.12	-6.92	 21.40	 0.00	-10.10	 106.30	 26.33	 7.20	 13.18	-69.50	 15.91	 0.71	-0.92	 0.01	-4.20	 0.00	-18.54	-86.62	-6.47	-21.35	-6.59	-30.29	-23.88	-2.25	 4.65	 0.18	 8.98	-30.43	 4.58	 3.81	 43.90	 9.42	 0.00	-11.03	 0.00	-10.31	 24.44	 4.31	 6.09	 17.59	-19.71	 0.00	 8.15	 0.00	
-5.23	 39.50	-26.02	-1.42	 0.26	-3.17	-13.66	 23.81	 14.32	 2.81	 35.15	 0.00	-11.05	-40.34	-5.53	 22.69	 0.00	-7.15	 107.77	 19.91	 17.23	 13.04	-61.22	 15.95	 0.70	-1.34	 0.02	-2.87	 0.00	-25.05	-85.80	-10.52	-19.70	-7.11	-30.68	-24.75	-2.24	 4.62	 0.18	 9.58	-26.88	 4.36	 1.33	 35.39	 9.68	 0.00	-11.81	 0.00	-7.74	 24.89	 3.28	 5.09	 32.67	-16.85	 0.00	 7.05	 0.00	
-5.00	 38.27	-22.20	-2.25	-1.38	-2.35	-13.14	 24.44	 13.40	 4.69	 35.25	 0.00	-9.28	-40.71	-2.80	 25.01	 0.00	 0.13	 105.91	 8.64	 28.33	 19.37	-53.14	 24.13	 0.68	-1.63	 0.02	-4.57	 0.00	-31.30	-82.56	-14.98	-17.99	-8.94	-31.82	-27.14	-2.16	 4.50	 0.17	 9.31	-22.64	 3.61	-0.58	 35.17	 10.33	 0.00	-15.49	 0.00	-6.10	 23.61	 2.45	 2.48	 52.29	-10.07	 0.00	 4.13	 0.00	
-4.76	 37.16	-18.58	-1.42	-2.91	-2.23	-14.53	 25.73	 9.63	 6.37	 34.43	 0.00	-7.84	-40.96	-0.60	 26.95	 0.00	 10.57	 102.92	-4.65	 38.58	 29.47	-48.46	 36.26	 0.69	-1.58	 0.02	-8.47	 0.00	-34.14	-77.71	-17.96	-16.26	-10.81	-33.10	-29.03	-2.07	 4.32	 0.16	 7.72	-18.50	 2.46	-2.02	 40.43	 11.74	 0.00	-21.95	 0.00	-6.18	 19.37	 2.06	-5.81	 72.75	 1.50	 0.00	 0.87	 0.00	
-4.54	 36.51	-15.17	 0.14	-3.53	-2.53	-16.24	 26.61	 1.08	 6.01	 34.99	 0.00	-8.00	-40.94	-0.85	 26.71	 0.00	 21.10	 99.63	-14.29	 45.95	 40.96	-50.88	 46.50	 0.71	-1.11	 0.01	-13.84	 0.00	-31.03	-72.72	-18.30	-15.51	-11.33	-34.86	-27.96	-1.97	 4.11	 0.14	 5.78	-14.11	 1.41	-3.64	 45.17	 13.61	 0.00	-28.40	 0.00	-6.98	 11.06	 1.35	-103.33	 84.96	 99.82	 0.00	-2.87	 0.00	
-4.35	 36.41	-11.82	 0.93	-3.37	-2.82	-16.31	 27.12	-10.16	 4.17	 36.56	 0.00	-9.34	-40.70	-2.89	 24.37	 0.00	 28.98	 96.26	-18.09	 51.48	 49.60	-59.49	 52.03	 0.72	-0.51	 0.01	-19.15	 0.00	-24.32	-70.09	-16.98	-17.65	-9.60	-36.73	-23.50	-1.90	 3.98	 0.13	 4.66	-8.38	 0.68	-4.74	 45.17	 14.75	 0.00	-32.32	 0.00	-6.86	-0.50	-0.06	-150.93	 74.14	 146.77	 0.00	-7.08	 0.00	
-4.22	 36.67	-8.40	 0.81	-3.23	-2.67	-14.83	 28.41	-17.88	 4.01	 37.01	 0.00	-9.25	-40.72	-2.76	 20.65	 0.00	 32.48	 93.88	-19.42	 58.41	 51.94	-70.61	 52.27	 0.72	-0.07	 0.00	-22.54	 0.00	-22.42	-70.80	-16.82	-21.37	-6.45	-38.22	-17.82	-1.88	 3.91	 0.13	 4.34	-1.23	 0.09	-4.71	 41.73	 14.48	 0.00	-33.04	 0.00	-5.79	-13.03	-1.31	-155.22	 68.03	 150.76	 0.00	-10.29	 0.00	
-4.15	 36.82	-4.88	 0.50	-3.26	-2.33	-12.87	 29.56	-22.78	 5.32	 37.90	 0.00	-7.39	-41.03	 0.09	 17.64	 0.00	 33.28	 90.83	-20.18	 63.34	 46.76	-80.90	 46.49	 0.74	 0.27	 0.00	-25.01	 0.00	-20.87	-72.17	-15.02	-27.28	-4.19	-39.90	-13.45	-1.85	 3.81	 0.12	 4.52	 5.43	-0.43	-4.98	 40.92	 14.19	 0.00	-30.70	 0.00	-5.25	-26.58	-2.36	-157.33	 65.50	 153.20	 0.00	-9.30	 0.00	
-4.16	 36.86	-1.27	 0.09	-3.43	-1.89	-10.65	 30.58	-24.99	 8.02	 38.71	 0.00	-3.70	-41.44	 5.68	 15.81	 0.00	 32.00	 86.68	-20.98	 63.97	-17.52	-87.25	-17.29	 0.77	 0.52	-0.01	-26.90	 0.00	-19.78	-73.70	-11.95	-35.49	-1.93	-41.83	-9.02	-1.83	 3.68	 0.12	 5.14	 11.42	-1.02	-5.80	 43.01	 14.38	 0.00	-27.15	 0.00	-5.47	-36.95	-3.29	-158.58	 66.13	 154.81	 0.00	-8.52	 0.00	
-4.23	 36.81	 2.40	-0.38	-3.68	-1.39	-8.32	 31.45	-25.09	 11.94	 38.77	 0.00	 1.01	-41.57	 12.78	 15.00	 0.00	 29.25	 81.58	-21.72	 53.14	-28.60	-88.10	-27.14	 0.80	 0.57	-0.01	-28.35	 0.00	-19.22	-75.32	-8.23	-45.96	 1.74	-44.01	-2.56	-1.80	 3.49	 0.11	 6.14	 16.39	-1.74	-7.18	 47.61	 15.29	 0.00	-24.03	 0.00	-6.23	-39.54	-3.98	-154.79	 72.81	 151.06	 0.00	-9.59	 0.00	
-4.34	 36.72	 6.11	-0.85	-3.98	-0.88	-6.02	 32.13	-23.70	 16.78	 37.74	 0.00	 5.22	-41.31	 19.14	 14.89	 0.00	 25.49	 75.99	-21.85	 28.45	 60.71	-80.91	 63.96	 0.81	 0.24	 0.00	-29.44	 0.00	-18.93	-77.06	-4.30	-55.98	 5.66	-46.34	 3.93	-1.75	 3.22	 0.10	 7.35	 19.67	-2.49	-8.88	 54.16	 16.89	 0.00	-21.25	 0.00	-6.98	-36.28	-4.14	-125.70	 83.73	 121.70	 0.00	-11.43	 0.00	
-4.49	 36.62	 9.85	-1.29	-4.28	-0.42	-3.89	 32.59	-21.41	 21.87	 35.73	 0.00	 7.90	-40.95	 23.21	 15.15	 0.00	 21.08	 70.79	-20.78	-0.30	 57.52	-69.61	 63.37	 0.80	-0.54	 0.01	-30.18	 0.00	-18.62	-78.87	-0.48	-63.33	 8.40	-48.90	 8.37	-1.68	 2.91	 0.09	 8.54	 20.55	-3.02	-10.61	 62.33	 19.07	 0.00	-17.23	 0.00	-7.55	-32.15	-4.04	-15.47	 81.79	 11.15	 0.00	-14.02	 0.00	
-4.66	 36.55	 13.59	-1.66	-4.54	-0.05	-2.07	 32.83	-18.66	 26.30	 33.15	 0.00	 9.06	-40.75	 24.99	 15.53	 0.00	 16.36	 67.00	-18.46	-17.29	 42.69	-66.13	 50.03	 0.78	-1.26	 0.02	-30.54	 0.00	-18.06	-80.63	 2.91	-68.13	 10.28	-51.54	 11.28	-1.62	 2.59	 0.07	 9.49	 19.25	-3.16	-13.87	 72.73	 22.92	 0.00	-13.85	 0.00	-7.91	-27.38	-3.66	 3.08	 71.53	-7.63	 0.00	-17.24	 0.00	
-4.85	 36.55	 17.31	-1.92	-4.68	 0.18	-0.69	 32.85	-15.75	 29.33	 30.48	 0.00	 9.14	-40.74	 25.10	 15.89	 0.00	 11.64	 65.05	-15.08	-22.69	 24.52	-66.98	 31.15	 0.76	-1.52	 0.02	-30.48	 0.00	-17.16	-82.16	 5.54	-71.58	 12.64	-53.73	 14.39	-1.56	 2.32	 0.06	 10.08	 16.14	-2.83	-25.18	 83.59	 34.77	 0.00	-11.65	 0.00	-8.07	-22.16	-3.06	 8.32	 61.93	-12.92	 0.00	-20.59	 0.00	
-5.03	 36.64	 20.98	-2.03	-4.67	 0.22	 0.12	 32.71	-12.82	 30.48	 28.12	 0.00	 8.45	-40.86	 24.05	 16.19	 0.00	 7.24	 64.93	-10.54	-23.62	 11.71	-68.48	 17.15	 0.73	-1.45	 0.02	-29.96	 0.00	-15.96	-83.26	 7.09	-74.95	 16.88	-54.73	 19.42	-1.53	 2.14	 0.06	 10.26	 11.46	-2.06	-166.51	 85.87	 176.50	 0.00	-10.41	 0.00	-8.08	-16.60	-2.32	 10.49	 53.28	-15.03	 0.00	-23.46	 0.00	
-5.20	 36.88	 24.60	-1.95	-4.43	 0.01	 0.21	 32.43	-9.91	 29.47	 26.39	 0.00	 7.03	-41.08	 21.89	 16.50	 0.00	 3.40	 66.59	-4.61	-23.28	 6.54	-71.50	 11.35	 0.71	-1.22	 0.02	-28.90	 0.00	-14.61	-83.74	 7.29	-79.30	 23.51	-53.48	 27.17	-1.52	 2.09	 0.06	 10.06	 5.34	-0.95	 174.94	 78.35	-164.76	 0.00	-9.89	 0.00	-8.03	-10.69	-1.50	 11.12	 45.30	-15.64	 0.00	-25.30	 0.00	
-5.35	 37.30	 28.14	-1.65	-3.91	-0.48	-0.60	 32.05	-6.99	 26.09	 25.43	 0.00	 4.63	-41.36	 18.25	 16.98	 0.00	 0.34	 69.99	 2.73	-21.83	 7.64	-76.60	 12.31	 0.70	-0.88	 0.01	-27.22	 0.00	-13.28	-83.53	 5.90	-82.86	 28.40	-49.86	 33.24	-1.55	 2.24	 0.06	 9.55	-2.29	 0.38	 168.89	 73.70	-158.80	 0.00	-10.08	 0.00	-8.02	-4.33	-0.61	 10.67	 37.55	-15.35	 0.00	-25.53	 0.00	
-5.47	 37.93	 31.57	-1.05	-3.06	-1.31	-2.53	 31.62	-3.99	 20.27	 25.17	 0.00	 0.78	-41.57	 12.44	 17.86	 0.00	-1.72	 74.97	 10.93	-19.26	 24.44	-82.43	 29.15	 0.71	-0.45	 0.01	-24.79	 0.00	-12.19	-82.75	 2.77	-84.14	 28.91	-44.18	 35.05	-1.59	 2.63	 0.07	 8.84	-11.72	 1.81	 161.90	 73.25	-152.25	 0.00	-11.21	 0.00	-8.16	 2.73	 0.39	 9.34	 29.44	-14.55	 0.00	-23.47	 0.00	
-5.55	 38.75	 35.00	 0.01	-2.04	-2.72	-6.05	 31.01	-0.15	 13.43	 25.30	 0.00	-4.05	-41.41	 5.15	 19.15	 0.00	-3.26	 80.97	 18.16	-15.61	 66.16	-84.52	 70.72	 0.71	-0.10	 0.00	-21.60	 0.00	-11.45	-82.09	-0.66	-83.46	 26.70	-37.65	 34.50	-1.66	 3.14	 0.09	 8.13	-21.22	 2.96	 148.81	 78.16	-139.22	 0.00	-12.52	 0.00	-8.94	 10.08	 1.58	 7.63	 20.66	-13.70	 0.00	-18.56	 0.00	
